<mxfile host="app.diagrams.net" modified="2024-07-19T05:14:37.658Z" agent="Mozilla/5.0 (Macintosh; Intel Mac OS X 10_15_7) AppleWebKit/537.36 (KHTML, like Gecko) Chrome/126.0.0.0 Safari/537.36" etag="MfoLCRy_jxl-l8_Q21SM" version="24.7.1" type="device">
  <diagram id="kgpKYQtTHZ0yAKxKKP6v" name="Page-1">
    <mxGraphModel dx="1434" dy="677" grid="1" gridSize="10" guides="1" tooltips="1" connect="1" arrows="1" fold="1" page="1" pageScale="1" pageWidth="850" pageHeight="1100" math="0" shadow="0">
      <root>
        <mxCell id="0" />
        <mxCell id="1" parent="0" />
        <mxCell id="rLZ0drKBjzexQms3yXf0-32" value="" style="rounded=0;whiteSpace=wrap;html=1;fillColor=none;strokeColor=none;" vertex="1" parent="1">
          <mxGeometry x="95" y="35" width="610" height="545" as="geometry" />
        </mxCell>
        <mxCell id="rLZ0drKBjzexQms3yXf0-33" value="&lt;font face=&quot;Garamond&quot; style=&quot;font-size: 16px;&quot;&gt;PurpleScripts Architecture&lt;/font&gt;" style="rounded=0;whiteSpace=wrap;html=1;fillColor=none;fontStyle=1;fontSize=16;fontColor=#0000FF;strokeColor=none;" vertex="1" parent="1">
          <mxGeometry x="275.75" y="520" width="245" height="50" as="geometry" />
        </mxCell>
        <mxCell id="rLZ0drKBjzexQms3yXf0-30" value="" style="rounded=0;whiteSpace=wrap;html=1;gradientColor=none;fillColor=none;fillStyle=solid;glass=0;dashed=1;dashPattern=1 1;strokeWidth=2;" vertex="1" parent="1">
          <mxGeometry x="184.75" y="70" width="423.5" height="70" as="geometry" />
        </mxCell>
        <mxCell id="rLZ0drKBjzexQms3yXf0-29" value="" style="rounded=0;whiteSpace=wrap;html=1;gradientColor=none;fillColor=none;fillStyle=solid;glass=0;dashed=1;dashPattern=1 1;strokeWidth=2;" vertex="1" parent="1">
          <mxGeometry x="186.5" y="180" width="423.5" height="70" as="geometry" />
        </mxCell>
        <mxCell id="rLZ0drKBjzexQms3yXf0-26" value="" style="rounded=0;whiteSpace=wrap;html=1;gradientColor=none;fillColor=none;fillStyle=solid;glass=0;dashed=1;dashPattern=1 1;strokeWidth=2;" vertex="1" parent="1">
          <mxGeometry x="183" y="290" width="427" height="210" as="geometry" />
        </mxCell>
        <mxCell id="rLZ0drKBjzexQms3yXf0-1" value="Task" style="rounded=0;whiteSpace=wrap;html=1;fillColor=#ffe6cc;strokeColor=#d79b00;" vertex="1" parent="1">
          <mxGeometry x="200" y="310" width="250" height="50" as="geometry" />
        </mxCell>
        <mxCell id="rLZ0drKBjzexQms3yXf0-2" value="Resetd&lt;br&gt;______&lt;br&gt;usbctl&lt;br&gt;astrisctl" style="rounded=0;whiteSpace=wrap;html=1;fillColor=#ffe6cc;strokeColor=#d79b00;" vertex="1" parent="1">
          <mxGeometry x="470" y="310" width="130" height="150" as="geometry" />
        </mxCell>
        <mxCell id="rLZ0drKBjzexQms3yXf0-12" style="edgeStyle=orthogonalEdgeStyle;rounded=0;orthogonalLoop=1;jettySize=auto;html=1;exitX=0.5;exitY=0;exitDx=0;exitDy=0;entryX=0.75;entryY=1;entryDx=0;entryDy=0;" edge="1" parent="1" source="rLZ0drKBjzexQms3yXf0-3" target="rLZ0drKBjzexQms3yXf0-7">
          <mxGeometry relative="1" as="geometry">
            <Array as="points">
              <mxPoint x="400" y="160" />
              <mxPoint x="268" y="160" />
            </Array>
          </mxGeometry>
        </mxCell>
        <mxCell id="rLZ0drKBjzexQms3yXf0-14" style="edgeStyle=orthogonalEdgeStyle;rounded=0;orthogonalLoop=1;jettySize=auto;html=1;exitX=0.5;exitY=0;exitDx=0;exitDy=0;entryX=0.5;entryY=1;entryDx=0;entryDy=0;" edge="1" parent="1" source="rLZ0drKBjzexQms3yXf0-3" target="rLZ0drKBjzexQms3yXf0-8">
          <mxGeometry relative="1" as="geometry" />
        </mxCell>
        <mxCell id="rLZ0drKBjzexQms3yXf0-16" style="edgeStyle=orthogonalEdgeStyle;rounded=0;orthogonalLoop=1;jettySize=auto;html=1;exitX=0.5;exitY=0;exitDx=0;exitDy=0;entryX=0.5;entryY=1;entryDx=0;entryDy=0;" edge="1" parent="1" source="rLZ0drKBjzexQms3yXf0-3" target="rLZ0drKBjzexQms3yXf0-9">
          <mxGeometry relative="1" as="geometry" />
        </mxCell>
        <mxCell id="rLZ0drKBjzexQms3yXf0-18" style="edgeStyle=orthogonalEdgeStyle;rounded=0;orthogonalLoop=1;jettySize=auto;html=1;exitX=0.5;exitY=0;exitDx=0;exitDy=0;entryX=0.5;entryY=1;entryDx=0;entryDy=0;" edge="1" parent="1" source="rLZ0drKBjzexQms3yXf0-3" target="rLZ0drKBjzexQms3yXf0-10">
          <mxGeometry relative="1" as="geometry" />
        </mxCell>
        <mxCell id="rLZ0drKBjzexQms3yXf0-21" style="edgeStyle=orthogonalEdgeStyle;rounded=0;orthogonalLoop=1;jettySize=auto;html=1;entryX=0.5;entryY=0;entryDx=0;entryDy=0;" edge="1" parent="1" target="rLZ0drKBjzexQms3yXf0-2">
          <mxGeometry relative="1" as="geometry">
            <mxPoint x="535" y="240" as="sourcePoint" />
          </mxGeometry>
        </mxCell>
        <mxCell id="rLZ0drKBjzexQms3yXf0-22" value="reset" style="edgeLabel;html=1;align=center;verticalAlign=middle;resizable=0;points=[];" vertex="1" connectable="0" parent="rLZ0drKBjzexQms3yXf0-21">
          <mxGeometry x="-0.0644" y="-1" relative="1" as="geometry">
            <mxPoint as="offset" />
          </mxGeometry>
        </mxCell>
        <mxCell id="rLZ0drKBjzexQms3yXf0-3" value="Scheduler" style="rounded=0;whiteSpace=wrap;html=1;fillColor=#ffe6cc;strokeColor=#d79b00;" vertex="1" parent="1">
          <mxGeometry x="200" y="190" width="400" height="50" as="geometry" />
        </mxCell>
        <mxCell id="rLZ0drKBjzexQms3yXf0-4" value="Atlas" style="rounded=0;whiteSpace=wrap;html=1;fillColor=#f8cecc;strokeColor=#b85450;" vertex="1" parent="1">
          <mxGeometry x="200" y="360" width="125" height="50" as="geometry" />
        </mxCell>
        <mxCell id="rLZ0drKBjzexQms3yXf0-5" value="PurpleRabbit" style="rounded=0;whiteSpace=wrap;html=1;fillColor=#f8cecc;strokeColor=#b85450;" vertex="1" parent="1">
          <mxGeometry x="325" y="360" width="125" height="50" as="geometry" />
        </mxCell>
        <mxCell id="rLZ0drKBjzexQms3yXf0-6" value="ï£¿ Device" style="rounded=0;whiteSpace=wrap;html=1;fillColor=#dae8fc;strokeColor=#6c8ebf;" vertex="1" parent="1">
          <mxGeometry x="200" y="410" width="250" height="50" as="geometry" />
        </mxCell>
        <mxCell id="rLZ0drKBjzexQms3yXf0-7" value="Dashboard" style="rounded=0;whiteSpace=wrap;html=1;fillColor=#d5e8d4;strokeColor=#82b366;" vertex="1" parent="1">
          <mxGeometry x="200" y="80" width="90" height="50" as="geometry" />
        </mxCell>
        <mxCell id="rLZ0drKBjzexQms3yXf0-8" value="Dashboard" style="rounded=0;whiteSpace=wrap;html=1;fillColor=#d5e8d4;strokeColor=#82b366;" vertex="1" parent="1">
          <mxGeometry x="303" y="80" width="90" height="50" as="geometry" />
        </mxCell>
        <mxCell id="rLZ0drKBjzexQms3yXf0-9" value="Dashboard" style="rounded=0;whiteSpace=wrap;html=1;fillColor=#d5e8d4;strokeColor=#82b366;" vertex="1" parent="1">
          <mxGeometry x="407" y="80" width="90" height="50" as="geometry" />
        </mxCell>
        <mxCell id="rLZ0drKBjzexQms3yXf0-10" value="..." style="rounded=0;whiteSpace=wrap;html=1;fillColor=#d5e8d4;strokeColor=#82b366;" vertex="1" parent="1">
          <mxGeometry x="510" y="80" width="90" height="50" as="geometry" />
        </mxCell>
        <mxCell id="rLZ0drKBjzexQms3yXf0-19" style="edgeStyle=orthogonalEdgeStyle;rounded=0;orthogonalLoop=1;jettySize=auto;html=1;exitX=0.5;exitY=0;exitDx=0;exitDy=0;entryX=0.313;entryY=1.06;entryDx=0;entryDy=0;entryPerimeter=0;" edge="1" parent="1" source="rLZ0drKBjzexQms3yXf0-1" target="rLZ0drKBjzexQms3yXf0-3">
          <mxGeometry relative="1" as="geometry" />
        </mxCell>
        <mxCell id="rLZ0drKBjzexQms3yXf0-20" value="Sync state" style="edgeLabel;html=1;align=center;verticalAlign=middle;resizable=0;points=[];" vertex="1" connectable="0" parent="rLZ0drKBjzexQms3yXf0-19">
          <mxGeometry x="-0.0179" y="1" relative="1" as="geometry">
            <mxPoint y="-1" as="offset" />
          </mxGeometry>
        </mxCell>
        <mxCell id="rLZ0drKBjzexQms3yXf0-24" style="edgeStyle=orthogonalEdgeStyle;rounded=0;orthogonalLoop=1;jettySize=auto;html=1;exitX=0.5;exitY=1;exitDx=0;exitDy=0;entryX=0.476;entryY=1.02;entryDx=0;entryDy=0;entryPerimeter=0;" edge="1" parent="1" source="rLZ0drKBjzexQms3yXf0-2" target="rLZ0drKBjzexQms3yXf0-6">
          <mxGeometry relative="1" as="geometry" />
        </mxCell>
        <mxCell id="rLZ0drKBjzexQms3yXf0-25" value="Reset" style="edgeLabel;html=1;align=center;verticalAlign=middle;resizable=0;points=[];" vertex="1" connectable="0" parent="rLZ0drKBjzexQms3yXf0-24">
          <mxGeometry x="0.0196" relative="1" as="geometry">
            <mxPoint as="offset" />
          </mxGeometry>
        </mxCell>
      </root>
    </mxGraphModel>
  </diagram>
</mxfile>
